<mxfile host="app.diagrams.net" modified="2022-05-16T13:20:01.429Z" agent="5.0 (Windows NT 10.0; Win64; x64) AppleWebKit/537.36 (KHTML, like Gecko) Chrome/101.0.4951.41 Safari/537.36" etag="F9HHfU23Q38tIyGNvwD4" version="18.0.4" type="github">
  <diagram id="vnsQBCSFg3ce2VKTvKUs" name="Page-1">
    <mxGraphModel dx="815" dy="505" grid="1" gridSize="10" guides="1" tooltips="1" connect="1" arrows="1" fold="1" page="1" pageScale="1" pageWidth="827" pageHeight="1169" math="0" shadow="0">
      <root>
        <mxCell id="0" />
        <mxCell id="1" parent="0" />
        <mxCell id="9e9hlNBBN7W5uGtZ7g7h-1" value="淘宝" style="whiteSpace=wrap;html=1;aspect=fixed;" vertex="1" parent="1">
          <mxGeometry x="560" y="150" width="140" height="140" as="geometry" />
        </mxCell>
        <mxCell id="9e9hlNBBN7W5uGtZ7g7h-2" value="浏览器" style="whiteSpace=wrap;html=1;aspect=fixed;" vertex="1" parent="1">
          <mxGeometry x="50" y="180" width="170" height="170" as="geometry" />
        </mxCell>
        <mxCell id="9e9hlNBBN7W5uGtZ7g7h-3" value="" style="shape=flexArrow;endArrow=classic;html=1;rounded=0;entryX=-0.014;entryY=0.203;entryDx=0;entryDy=0;entryPerimeter=0;" edge="1" parent="1" target="9e9hlNBBN7W5uGtZ7g7h-1">
          <mxGeometry width="50" height="50" relative="1" as="geometry">
            <mxPoint x="220" y="240" as="sourcePoint" />
            <mxPoint x="270" y="190" as="targetPoint" />
          </mxGeometry>
        </mxCell>
        <mxCell id="9e9hlNBBN7W5uGtZ7g7h-4" value="登录==&amp;gt;token/session" style="text;html=1;strokeColor=none;fillColor=none;align=center;verticalAlign=middle;whiteSpace=wrap;rounded=0;" vertex="1" parent="1">
          <mxGeometry x="330" y="160" width="150" height="30" as="geometry" />
        </mxCell>
        <mxCell id="9e9hlNBBN7W5uGtZ7g7h-5" value="" style="shape=flexArrow;endArrow=classic;html=1;rounded=0;entryX=1;entryY=0.5;entryDx=0;entryDy=0;" edge="1" parent="1" target="9e9hlNBBN7W5uGtZ7g7h-2">
          <mxGeometry width="50" height="50" relative="1" as="geometry">
            <mxPoint x="560" y="220" as="sourcePoint" />
            <mxPoint x="610" y="170" as="targetPoint" />
          </mxGeometry>
        </mxCell>
        <mxCell id="9e9hlNBBN7W5uGtZ7g7h-6" value="cookie" style="text;html=1;strokeColor=none;fillColor=none;align=center;verticalAlign=middle;whiteSpace=wrap;rounded=0;" vertex="1" parent="1">
          <mxGeometry x="410" y="240" width="60" height="30" as="geometry" />
        </mxCell>
        <mxCell id="9e9hlNBBN7W5uGtZ7g7h-8" value="黑客" style="shape=umlActor;verticalLabelPosition=bottom;verticalAlign=top;html=1;outlineConnect=0;" vertex="1" parent="1">
          <mxGeometry x="380" y="480" width="30" height="60" as="geometry" />
        </mxCell>
        <mxCell id="9e9hlNBBN7W5uGtZ7g7h-11" value="黑客做的网站" style="whiteSpace=wrap;html=1;aspect=fixed;" vertex="1" parent="1">
          <mxGeometry x="570" y="380" width="130" height="130" as="geometry" />
        </mxCell>
        <mxCell id="9e9hlNBBN7W5uGtZ7g7h-12" value="" style="shape=flexArrow;endArrow=classic;html=1;rounded=0;entryX=0.004;entryY=0.105;entryDx=0;entryDy=0;entryPerimeter=0;" edge="1" parent="1" target="9e9hlNBBN7W5uGtZ7g7h-11">
          <mxGeometry width="50" height="50" relative="1" as="geometry">
            <mxPoint x="230" y="290" as="sourcePoint" />
            <mxPoint x="280" y="240" as="targetPoint" />
          </mxGeometry>
        </mxCell>
        <mxCell id="9e9hlNBBN7W5uGtZ7g7h-13" value="" style="shape=flexArrow;endArrow=classic;html=1;rounded=0;entryX=1.021;entryY=0.814;entryDx=0;entryDy=0;entryPerimeter=0;" edge="1" parent="1" target="9e9hlNBBN7W5uGtZ7g7h-2">
          <mxGeometry width="50" height="50" relative="1" as="geometry">
            <mxPoint x="570" y="440" as="sourcePoint" />
            <mxPoint x="620" y="390" as="targetPoint" />
          </mxGeometry>
        </mxCell>
        <mxCell id="9e9hlNBBN7W5uGtZ7g7h-14" value="该浏览器保存的用户信息" style="text;html=1;strokeColor=none;fillColor=none;align=center;verticalAlign=middle;whiteSpace=wrap;rounded=0;" vertex="1" parent="1">
          <mxGeometry x="330" y="380" width="140" height="30" as="geometry" />
        </mxCell>
        <mxCell id="9e9hlNBBN7W5uGtZ7g7h-15" value="" style="shape=flexArrow;endArrow=classic;html=1;rounded=0;entryX=0.25;entryY=1;entryDx=0;entryDy=0;" edge="1" parent="1" target="9e9hlNBBN7W5uGtZ7g7h-1">
          <mxGeometry width="50" height="50" relative="1" as="geometry">
            <mxPoint x="570" y="490" as="sourcePoint" />
            <mxPoint x="620" y="440" as="targetPoint" />
          </mxGeometry>
        </mxCell>
        <mxCell id="9e9hlNBBN7W5uGtZ7g7h-16" value="用户登录之后的淘宝" style="text;html=1;strokeColor=none;fillColor=none;align=center;verticalAlign=middle;whiteSpace=wrap;rounded=0;" vertex="1" parent="1">
          <mxGeometry x="605" y="330" width="125" height="30" as="geometry" />
        </mxCell>
        <mxCell id="9e9hlNBBN7W5uGtZ7g7h-17" value="" style="shape=flexArrow;endArrow=classic;html=1;rounded=0;entryX=0;entryY=0.846;entryDx=0;entryDy=0;entryPerimeter=0;" edge="1" parent="1" target="9e9hlNBBN7W5uGtZ7g7h-11">
          <mxGeometry width="50" height="50" relative="1" as="geometry">
            <mxPoint x="415" y="530" as="sourcePoint" />
            <mxPoint x="465" y="480" as="targetPoint" />
          </mxGeometry>
        </mxCell>
      </root>
    </mxGraphModel>
  </diagram>
</mxfile>
